<?xml version="1.0" encoding="UTF-8"?>
<svg id="Capa_1" data-name="Capa 1" xmlns="http://www.w3.org/2000/svg" viewBox="0 0 986.09 550.36">
  <defs>
    <style>
      .cls-1 {
        fill: #203a63;
      }

      .cls-2 {
        fill: #faf8f4;
      }
    </style>
  </defs>
  <path class="cls-2" d="M325.84,326.74c2.12,19.51-8.99-9.41-12.55-10.81-.25,10.57.84,21.37-2.04,31.52l-31.96-.21c-1.27,0-3.55-8.41-5.55-8.98-1.19-.35-11.3,7.41-14.64,8.72-26.13,10.24-57.65-1.34-68.17-34.12-19.94,35.1-55.3,45.51-87.5,31.69-6.71-2.88-15.93-14.17-21.2-14.45l-4.62,9.37c-1.77,3.59-4.66,6.19-7.99,7.09-19.14,5.06-38.38,2.37-47.81-12.14-12.47-19.19-8.34-72.9-7.54-81.96.06-.65-.4-1.2-.91-1.11-2.5.41-9.65-.51-12.21-.85-.57-.07-1.01-.62-1.04-1.31-.33-5.43.27-25.24.3-29.98.02-3.29,14.02-1.17,14.03-2.14l.24-36.45c.03-4.8,37.55-4.6,37.61-.77.08,4.94-.12,30.5-.48,37.37.53.57,21.59,0,24.58,1.22.33,3.2-.13,25.67.29,25.81,27.77-42.4,90.46-39.38,113.75,7.77,12.61-29.58,35.36-39.06,61.67-34.58,8.41,1.43,16.23,4.91,23.41,8.09l1.16-71.78c.36-2.3,3.27-2.57,3.88-2.57l31.04.2c1.51,0,2.73,1.55,2.72,3.4l-.62,95.79c24.66-41.56,74.9-45.09,106.4-12.86,3.89,3.97,4.88,13.13,12.3,11.37l.61-94.66c.04-2.77,2.07-2.24,2.68-2.24l34.41.22c.7,0,1.28.73,1.28,1.59l-.49,75.05c8.53-.22,15.05-8.92,23.33-10.58,24.2-4.87,44.43,3.6,52.29,33.61,25.5-42.03,78.68-46.01,108.77-9.48,3.63,4.4,5.68,13.88,11.69,12.61.98-.2,6.78-15.46,11.15-20.28,12.8-14.12,34.25-18.24,50.78-14.91,6.43,1.3,17.86,11,20.54,10.95,4.41-.11,2.76-6.36,7.2-6.99,4.03-.56,33.87-2.24,33.83,3.78l-.36,55.22c7.62-.24,10.34-8.63,18.4-12.21,19.7-8.78,35.11-2.59,54.72,1.41-1.8-22.75-26.43-22.53-40.79-20.35-6.54.99-19.68,11.71-21.15.79-3.6-26.67,5.33-30.28,24.87-32.5,22.69-2.56,57.01-.1,69.08,27.63,8.53,19.62,2.14,35.42,4.42,54.98.35,2.98,3.36,12.19,7.14,10.3l.55-84.52c.01-1.85,1.25-3.37,2.76-3.36l33.78.22c.39,0-.78,7.48,2.87,8.94s28.49-17.71,37.43-9.94c3.02,2.63,2.22,29.79-.72,32.34-4.09,3.58-37.99,4.89-38.1,21.64l-.45,69.87c-.01,1.87-1.25,3.37-2.76,3.36l-45.64-.3c-3.05-.02-15.72-5.78-19.33-7.83-3.61-2.05-3.1-6.31-5.98-5.94-5.93.75-13.19,9.47-19.46,12.29-16.21,7.29-31.84,6.13-47.54-2.38l-14.36-17.13c-.67,38.58-8.41,66.73-41.07,77.02-22.52,7.11-43.2,2.88-65.34-3.35l.2-31.55c26.68,2.9,68.45,19.99,67.75-31.12-31,23.8-68.84,14.81-86.58-25.33l-13.86,18.93c-15.08,14.87-43.65,24.31-62.12,16.64-4.71-1.95-12.49-5.04-16.4-6.87-11.7-5.49-17.66-13.41-25.38-24.96l-.18,27.05c-7.73-2.37-21.21-4.71-27.42,2.08-12.22,3.73-9.82-7.82-10.9-9.09-.02-7.55.26-14.67.12-18.03-.58-12.81,2.73-55.18-1.97-62.47-7.45-11.54-31.51-4.31-35.23,10.27-3.74,14.69.73,40.42-1.18,56.45.42,6.34.21,9.56.5,16.77.13,3.34-2.01,6.16-4.73,6.19-10.23.11-30.39,1.97-32.56-1.63-1.4-2.35-.58-32.96-6.15-27.31-1.19,2.76-2.21,5.91-3.82,7.98-13.65,17.29-38.04,26.24-57.52,24.42-1.43-.14-8.78-1.82-10.95-2.33-5.82-1.39-12.46-4.77-18.22-6.88.11-16.77-1.31-35.58,10.35-47.22,8.85,19.85,15.7,23.09,33.68,15.95,14.27-5.68,16.66-19.39,14.73-36.96-2.59-23.53-31.97-29.67-43.66-11.76-3.53,5.41-2.58,10.04-3.7,12.42-9.75,20.88-20.29,18.24-22.38,51.18l-.02-.05ZM52.55,251.11l-.34,52.97c-.05,8.34,17.44,8.23,19.3,4.97.63-1.08-2.46-12.26-2.86-18.3-.44-6.52-.14-15.85.37-22.45.32-4.19,4.09-15.1,4.14-17.31.05-1.53-16.39.86-20.62.09l.02.02ZM150.21,305.07c3.41-4.4,6.04-14.66,6.3-20.72,1.99-46.58-56.01-43.3-48.96,6.04,3.27,22.88,30.5,30.38,42.66,14.68h0ZM271,262.33c-12.35-16.02-36.76-14.1-44.12,8.01-11.84,35.56,21.52,58.5,42.53,35.01,7.82-8.72,8.64-33.89,1.6-43.02h-.02ZM621.35,310.45c14.73-16.38,9.01-52.86-12.75-55.8-35.57-4.78-37.75,56.4-9.61,60.91,6.32,1.01,17.45.34,22.36-5.11ZM745.48,308.93c6.17-7.47,7.26-19.49,6.32-29.69-3.01-32.52-53.8-35.38-51.29,10.94,1.5,27.46,30.33,36.42,44.97,18.75ZM827.09,301.82c-9.14,34.18,32.27,26.2,35.58,11.52,4.77-21.13-32.66-22.41-35.58-11.52Z"/>
  <path class="cls-1" d="M605.63,524.95c20.72.79,25.28-12.66,31.32-30.7,1.99-5.94,9.92-27.12,9.92-27.12l4.1-10.82,2.23-6.97,2.8-8.98c.19-1.28,2.1-5.87-1-9.81-1.42-1.79-1.69-.94-6.98-1.89-1.29-.23-4.28-.34-5.51-1.52-5.61-5.38-4.48-1.13-6.71,5.59-.9,2.72-4.28,13.2-7.91,14.49-2.43.86-3.28,1.38-10.06-.22-19.28-4.5-26.22-37.65-17.39-57.25.04-.07,0-.14-.07-.14-8.15,1.1-12.68-4.55-17.07-4.75-.86-.03-.3,9.15-6.34,13.26-10.25,6.99-14.9.69-17.99,12.33-.98,3.71-5.03,15.2-6.78,18.69-5.31,10.65-18.01,11.85-27.35,9.45-1.54-.39-5.35-8.33-6.56-9.55-3.34-3.36-.58-.91-6.58,8.3-.72,1.12-7.21,8.45-7.62,8.79-2.5,2.06-8.81,2.51-11.33-.07-.84-.88-6.29-8.04-6.76-9.2-3.49-8.38-3.01-17.28-5.98-16.7-.88.17-1.35.89-1.39.94-2.1,2.89-2,5.06-6.79,11.99-.5.72-2.83,2.78-4.05,3.44-1.99,1.11-2.01,1.05-5.33,1.93-11.7,3.1-21.67.81-26.47-13.63-.04-.11-.15-.14-.22-.05-6.11,9.29-6.67,15.6-18.32,14.35-7.3-.77-8.32-6.61-8.65-7.92-1.61-6.32-4.49,3.76-6.67,8.25-.89,1.82-.82,1.87-1.74,3.84-.95,2.07-2.9,4.29-3.55,5.09s-1.6,2.27-2.8,3.72c0,0-5.98,5.48-10.74,8.11-3.06,1.69-16.16-.6-18.68-2.85-2.32-2.07-6.29-8-10.42-10.3-1.14-.64-2.43.41-2.48,1.94-.6,19.34-.59,16.97-.24,36.56.08,4.24-.29,21.84-.61,23.69-.59,3.31-1.09,9.59-1.72,12.9-.29,1.53-1.57,6.03-1.9,6.75-3.63,7.44-6.16,10.8-11.23,16.02-1.26,1.28-1.5,1.64-3.86,3.29-.59.4-2.95,1.47-4.19,1.82-1.88.55-14.05.34-14.78-.21-3.13-2.3-8.61-8.24-9.26-9.32-.42-.68-3.4-8.34-3.72-10.19-3.44-20.22,3.74-40.93,10.75-58.67,1.01-2.56,3.55-7.93,3.89-9.71,2.28-11.89-9.13,1.54-9.13,1.54-1.35,1.46-6.83,4.37-14.53,5.92-1.93.39-4.06-1.2-4.76-3.46-3.03-9.91,5.04-11.55,9.46-11.73,1.82-.08,3.56-.9,4.93-2.4,4.48-4.86,14.08-15.33,14.5-16.22,3.79-8.11,8.66-19.13,11.5-27.11.32-.9.44-2.12.19-7.19-.18-3.45-.11-3.45-.52-7.69-1.76-18.02-1.53-58.86-.32-77.92,1.52-23.84,6.37-29.96,14-36.87,6.92-6.27,16.33-6.25,23.3-.07l.55.63.47.57c3.24,4.51,4.37,12.4,4.72,17.97.3,4.62-.64,14.24-.99,17.17-.19,1.58-.27,1.31-.56,1.3-.42,0-1.49,0-2.13-.17-.97-.23-1.62-.42-2.26-.58-.79-.21-2.59-1.17-2.59-1.19-.86-.48-2.42-1.82-3.33-2.7-.15-.14-1.12-2.53-1.75-4.79-2.19-7.77-11.62-6.39-13.2,1.6-2.45,12.58-3.39,20.65-3.6,28.24-.53,18.93,1.01,34.79,1.68,35.24s1.19.55,1.54.39c.52-.22,7.5-18.95,8.9-23,0-.05.86.3,1.05.34.07,0,5.58,1.64,7.09,1.96s2.7.58,2.96.65c.15.05,2.64.58,2.64.58l-16.16,61.68s-.09.29.13.11l8.85-5.58c.89-.54,4.63-7.84,4.72-8.02,0,0,.21-.52.22-.52,5.07-21.45,23.69-45.4,43.55-39.48.02,0,.04,0,.06.02,6.21,7.25,9.7,60.42,14.41,60.97.04,0,.07-.02.11-.07,10.99-18.55,5.63-39.57,15.9-58.97,8.21-15.52,28.73-15.12,35.19,1.4,2.3,5.85-1.77,14.95-7,12.87-2.35-.94-1.95-14.57-12.36-11.06-10.41,3.52-9.86,31.47-7.44,41.88.38,1.63,4.06,14.47,6.07,16.07,13.98,10.98,19.54-24.6,22.03-33.76,2.34-8.64,6.28-23.47,7.41-34.35.8-7.7-.08-15.89-.39-24.32-.56-5.08-9.3-3.51-8.65,3.62.38,3.99,9.92,6.8,5.4,12.72-1.63,2.13-17.56,1.67-18.2-9.13-.75-12.2,2.59-21.62,12.93-22.46,2.74-.23,12.4-.48,12.48-1.02,1.27-8.67,1.48-32.92,2.43-42.81,1.18-12.3.56-15.89,9.29-15.09,2.02.19,3.55,2.32,3.54,4.82l-.34,51.91s.04.11.09.09l10.16-2.03c.33-.04.55-.02.75.37,1.53,2.87,4.97,12.72-.11,17.47-.04.04-.07.04-.13,0-.93-.59-8.57.42-10.83-.03-.04,0-.07.02-.07.09-1.34,33.24-10.57,79.02-.82,98.54.38.77.81.5.84.43,14.74-21.09,4.36-70.79,21.84-89.9,6.22-6.79,19.69-4.45,27.4-2.08,18.54,5.71,12.97,30.49,15.02,48.51.1.9.84,1.45,1.54,1.2,6.41-2.21,9.46-3.25,10.62-12.35.76-6.06-3.85-1.51-5.65-4.75-2.98-5.36-2.86-21.18.8-29.9,1.18-2.81,3.67-4.44,6.21-3.99,4.24.75,10.18.92,13.13,5.61.27.43.53,1.24.6,1.78,1.77,14.03-9.39,26.51,7.58,25.59,6.73-.38,17.67-10.19,21.69.97,4.03,11.16-11.62,33.01-7.77,49.54.91,3.93,7.02,14.72,10.64,9.31,2.54-3.82,5.52-25.66,5.61-31.36.13-9.4-6.87-35.68,5.14-38.96.85-.24,1.66-.89,3.33-.27,2.72,1.01,4.46,4.24,4.44,7.74l-.18,27.18c-.02,2.7,1.41,15,3.66,17.06,3.99,3.68,10.84,3.88,14.57-.94.5-.72.94-2.74.9-3.38l-.65-47.56c.54-6.42,7.08-4.96,9.13-1.23,4.65,8.48,5.81,40,5.14,49.76-.79,11.72-4.28,39.08-6.98,46.9-3.73,10.82-4.01,13.7-7.84,23.23-.77,1.91-6.6,19.45-6.6,19.45l-3.27,8.43c-4.38,11.26-8.55,19.35-15.63,28.28-.69.87-3.49,5.05-4.53,6.12-1.74,1.81-2.72,4.63-23.05,3.75-1.47-.05-17.33-4.37-19.13-5.6-20.18-13.93-30.01-31.93-51.72-37.98-1.38-.39-4.13-1.78-5.47-2.18-3.74-1.08-5.71-1.93-9.47-3.01-1.36-.39-3.74-1.17-5.14-1.59-7.64-2.3-9.79-2.34-17.48-4.62-1.67-.51-10.98-2.66-21.83.44-17.63,5.02-33.14,8.24-49.55,12.59-1.38.37-2.69,1.06-4.07,1.44-3.56.97-6.12,1.76-10.01,4.04-6.07,3.57-4.07,31.51-16.11,25.16-.64-.34-7.29-10.69-9.11-12.77-3.74-4.24-12.51-5.54-8.2-13.73,5.1-9.7,20.77-9.47,30.19-13.6,1.51-.67,2.83-1.87,4.28-2.54,57.14-26.38,111.45-29.73,163.73,16.43,13.49,11.92,7.59,12.38,29.23,19.33M549.59,350.96c-4.91-5.06-4.13,12.78-3.62,16.72.28,2.14,3.38,14.56,7.07,12.58,0,0,.04-.02.04-.04.32-6.87.8-24.83-3.49-29.26ZM526.46,417.12c13.25,20.62,17.66-.52,22.5-15.86v-.09c-9.52-14.42-16.4-28.26-15.82-47.82,0-.09-.09-.16-.15-.09-13.06,14.57-17.35,47.02-6.52,63.86h-.02ZM399.66,383.78s0-.02-.02-.05c-9.32-11.69-46.96,67.11-19.98,60.43,17.55-4.35,24.16-41.77,20-60.39ZM336.68,521.99c2.84-18.64-1.68-46.47.41-66.24,0-.07-.05-.11-.11-.07-11.3,14.96-29.45,49.78-25.82,70.18.11.56,2.04,5.67,5.23,9.55.02.02,0,.07.04.09,7.53,6.5,18.78-3.96,20.24-13.48v-.02Z"/>
  <path class="cls-1" d="M233,103.9c-.79-3.09-1.25-5.69-.49-6.18,3.67-2.3,4.23-2.63,5.89-3.43,8.26-3.96,22.37-13.2,30.74-18.96,1.75-1.21,8.05-5.31,10.27-7.01.48-.38.78-1.01.78-1.71l.35-54.43c.02-2.98,2-5.4,4.41-5.38l55.76.36c1.14,0,2.07,1.1,2.15,2.49.21,4.26-.07,19.74-.16,24.63,0,.68.56,1.11,1.04.77l3.9-2.54c3.47-2.5,8.26-5.92,11.1-7.68,5.28-3.26,34.51-21.14,38.31-23.46.44-.27,1.14-.49,1.51-.69,3.19-1.76,6.4.15,9.03,2.63l32.1,30.01c15.78,13.99,43.61,41.85,45.25,43.37.05.05,3.64,3.56,3.69,3.63l13.24,14.49,10.04,11.2c.6.75.6,4.56.06,5.34-2.3,3.41-7.39,10.12-8.76,12.52-1.08,1.89-4.27,5.86-5.33,7.58-.37.58-6.54,8.18-7.04,8.38l-4.68,4.34c-1.18,1.1-3.04.99-4.14-.25l-4.87-5.53c-.95-1.11-6.48-7.53-7.23-8.52-.05-.07-5.4-6.28-5.46-6.32l-3.74-3.95-4.29-4.83c-.22-.23-4.53-4.99-4.99-5.4-.04-.02-.07-.07-.09-.09-.68-.73-8.36-8.96-8.42-8.96l-27.93-29.12s-4.97-5.22-5-5.24l-4.84-5.4c-5.59-5.9-5.76-5.49-13.19-1.75-.04,0-4.82,2.72-4.85,2.74-6.15,3.34-9.67,5.68-11.24,6.62-21.43,12.75-13.72,8.07-31.82,20.15-9.83,6.56-35.41,24.54-45.3,29.77-14.49,7.68-30.49,19.64-44.03,26.74-.57.31-2.77,1.49-4.54,2.47-1.22.67-2.65.25-3.49-1.04-1.51-2.35-2.97-6.38-3.1-6.69-.14-.34-2.94-9.28-2.94-9.28,0,0-5.3-16.94-5.57-18"/>
  <path class="cls-1" d="M390.13,534.48c-.26.34-2.5,2.44-4.36,5.43-1.34,2.16-4.07,8.76-8.43,7.34-1.9-7.88,6.36-24.73,13.58-18.28,1.28,1.16.1,4.4-.77,5.52h-.02Z"/>
  <path class="cls-1" d="M381.9,524.49l-8.85,11.98c-1.58,2.13-4.4.4-4.01-2.44,1.12-8.24,4.1-14.11,11.11-14.33,2.02-.05,3.11,2.95,1.73,4.81l.02-.02Z"/>
</svg>